<svg version="1.1" id="Layer_1" xmlns="http://www.w3.org/2000/svg" xmlns:xlink="http://www.w3.org/1999/xlink" x="0px" y="0px"
	 width="100%" viewBox="0 0 512 512" enable-background="new 0 0 512 512" xml:space="preserve">
<path fill="#000000" opacity="1.000000" stroke="none" 
	d="
M70.367279,431.610016 
	C45.713493,403.952637 30.987156,372.066040 26.003788,335.726227 
	C24.918198,327.809875 24.618082,319.819672 24.622927,311.805664 
	C24.678444,219.976547 24.658606,128.147369 24.658974,36.318199 
	C24.658976,35.818222 24.682041,35.317219 24.658064,34.818436 
	C24.457577,30.647675 25.677273,27.120405 29.738155,25.378071 
	C34.037228,23.533539 37.421898,25.452040 40.461502,28.499245 
	C59.293217,47.378036 78.153618,66.228210 97.007439,85.084946 
	C106.670036,94.749016 116.376785,104.369438 125.975250,114.096748 
	C128.110580,116.260750 129.791763,117.172958 132.754181,115.122894 
	C160.239594,96.102272 191.111969,86.470482 224.016403,82.589989 
	C259.817749,78.367874 295.147247,80.434952 329.811066,90.757278 
	C346.981720,95.870438 363.275940,102.980339 378.229431,112.970055 
	C384.706940,117.297356 384.732971,117.318138 390.095215,111.961205 
	C417.565765,84.517700 445.020081,57.057961 472.493713,29.617542 
	C473.785797,28.327017 475.071930,26.952616 476.594574,25.985050 
	C481.673859,22.757299 488.286682,25.813671 489.209869,31.752201 
	C489.412964,33.058575 489.343872,34.412468 489.343781,35.744476 
	C489.337219,129.573502 489.712219,223.404907 489.139130,317.230499 
	C488.877899,359.994629 473.508148,397.604248 445.153534,429.676331 
	C416.056854,462.587860 379.464081,481.730042 336.078033,487.971100 
	C327.499786,489.205078 318.832336,489.398590 310.154205,489.380402 
	C274.655975,489.305939 239.157364,489.288574 203.659134,489.359283 
	C150.964127,489.464264 106.668663,470.214325 70.367279,431.610016 
M186.966980,107.485954 
	C169.024872,113.529671 151.896149,121.140892 137.033539,133.183044 
	C129.702606,139.122787 127.052986,138.956100 120.472809,132.382111 
	C95.949402,107.881737 71.436409,83.370926 46.888470,58.895164 
	C45.440395,57.451351 44.268623,55.521107 41.920723,54.985310 
	C40.948170,57.484432 41.375637,59.825680 41.374844,62.103458 
	C41.346664,142.934555 41.339211,223.765640 41.368298,304.596741 
	C41.370934,311.915039 41.482948,319.212280 42.078159,326.544952 
	C44.429192,355.508301 53.940659,381.899445 71.007095,405.224091 
	C103.520988,449.660736 147.747925,472.038666 202.758133,472.587891 
	C238.753555,472.947296 274.755493,472.644012 310.754486,472.658081 
	C325.985077,472.664062 340.965729,470.825287 355.652435,466.735138 
	C422.060852,448.241058 471.398376,388.688263 472.372864,317.055176 
	C473.547119,230.740189 472.657898,144.397079 472.621277,58.066151 
	C472.620789,56.900852 473.318298,55.425663 471.645966,54.418255 
	C470.442017,55.566830 469.224213,56.682045 468.057587,57.848465 
	C442.954132,82.947510 417.862366,108.058235 392.752655,133.151047 
	C387.531067,138.369156 383.782227,138.872498 378.820587,134.728546 
	C361.326508,120.117531 340.974609,111.330780 319.265442,105.283203 
	C313.557098,103.693024 313.371033,103.872093 313.357086,109.842506 
	C313.329865,121.508728 313.334412,133.175018 313.321167,144.841293 
	C313.316956,148.572159 311.571503,151.264969 308.175323,152.674744 
	C304.972351,154.004303 301.929871,153.354645 299.352966,151.042221 
	C297.059662,148.984299 296.634857,146.237015 296.644470,143.293121 
	C296.685822,130.626968 296.526154,117.958397 296.735626,105.295609 
	C296.795258,101.687851 295.594818,100.123482 292.082489,99.844849 
	C286.778442,99.424042 281.501740,98.577713 276.193329,98.309387 
	C265.357819,97.761696 265.352173,97.870728 265.350311,108.963326 
	C265.346985,128.629440 265.392731,148.295761 265.313293,167.961563 
	C265.286346,174.631668 260.376038,178.782852 254.692490,176.995300 
	C250.008591,175.522141 248.624924,171.832962 248.637207,167.214111 
	C248.693024,146.214859 248.672256,125.215324 248.626968,104.215996 
	C248.622787,102.274849 249.152908,100.218681 247.785034,98.117462 
	C239.422440,97.654533 231.046341,98.997154 222.629364,99.657486 
	C218.450943,99.985298 217.150772,101.838570 217.246613,106.065582 
	C217.533676,118.725288 217.407562,131.396317 217.311630,144.061920 
	C217.264267,150.315979 213.021591,154.141830 207.554214,153.167984 
	C203.350601,152.419235 200.739777,149.147385 200.698517,144.055893 
	C200.604019,132.390289 200.521515,120.721115 200.722931,109.058372 
	C200.797562,104.737328 199.367294,103.659760 195.414719,105.102814 
	C192.921005,106.013268 190.300995,106.577728 186.966980,107.485954 
z"/>
<path fill="#000000" opacity="1.000000" stroke="none" 
	d="
M311.607452,383.470978 
	C312.022461,380.947235 312.396027,378.820679 312.702850,376.684509 
	C313.415222,371.725189 316.842072,368.562134 321.347504,368.746857 
	C325.889954,368.933075 329.019165,372.325806 329.295197,377.363892 
	C330.364349,396.877472 312.094238,416.410004 292.160980,417.328583 
	C279.234924,417.924255 268.288666,413.839478 259.298187,404.522278 
	C258.631409,403.831299 257.872070,403.229645 257.230225,402.653290 
	C254.923874,403.390564 253.917084,405.257416 252.456055,406.561279 
	C239.960480,417.712341 225.674194,420.478302 210.217499,414.479004 
	C195.066254,408.598175 186.874283,396.832397 184.808334,380.803406 
	C184.447266,378.002014 184.393112,375.105377 186.090256,372.576965 
	C188.033844,369.681396 190.812866,368.296356 194.236435,368.856445 
	C198.081268,369.485443 200.425049,371.946564 201.196304,375.765320 
	C201.589676,377.713135 201.613678,379.740906 202.069717,381.669861 
	C204.842957,393.400024 215.304749,401.539246 226.296509,400.603912 
	C238.788300,399.540985 248.148132,389.831085 248.596756,377.141632 
	C248.843857,370.152008 248.540024,363.144043 248.713882,356.150055 
	C248.786026,353.248016 247.709869,351.608887 245.154175,350.293030 
	C238.867508,347.056274 235.162582,341.637543 233.280792,334.945953 
	C231.660034,329.182587 233.601227,324.757721 239.203217,323.013672 
	C251.116608,319.304688 263.208954,319.474152 275.089752,323.148895 
	C280.382263,324.785919 282.369354,329.391449 280.826080,334.792145 
	C278.923340,341.450714 275.325958,346.981781 268.990753,350.169159 
	C266.196381,351.575073 265.203918,353.391693 265.295502,356.445526 
	C265.485260,362.771515 265.321991,369.107361 265.357330,375.438873 
	C265.431122,388.659271 273.235352,398.062866 286.011749,400.379364 
	C296.426392,402.267700 307.035492,395.402954 311.607452,383.470978 
z"/>
<path fill="#000000" opacity="1.000000" stroke="none" 
	d="
M142.000122,195.650925 
	C233.631790,195.651703 324.763428,195.652496 415.895081,195.653839 
	C425.198151,195.653976 425.347778,195.800507 425.348022,205.242432 
	C425.348907,239.395981 425.349274,273.549530 425.339539,307.703064 
	C425.337219,315.846497 424.840576,316.365570 416.945618,316.366058 
	C309.986755,316.372620 203.027893,316.373322 96.069023,316.368530 
	C88.785294,316.368195 88.664047,316.253357 88.662300,309.199097 
	C88.653526,273.712738 88.655861,238.226379 88.667923,202.740021 
	C88.670326,195.662033 88.697716,195.653442 96.017662,195.650909 
	C111.178482,195.645645 126.339302,195.650452 142.000122,195.650925 
M241.499878,310.649780 
	C298.819183,310.649292 356.138641,310.599976 413.457611,310.738586 
	C418.180023,310.750000 419.779510,309.489441 419.750092,304.587738 
	C419.555023,272.096802 419.555206,239.603561 419.751129,207.112640 
	C419.779602,202.386322 418.263031,201.275787 413.755676,201.280853 
	C309.447784,201.398087 205.139694,201.405594 100.831810,201.283768 
	C95.894897,201.278000 94.197502,202.517883 94.233009,207.696716 
	C94.453522,239.854065 94.341896,272.013672 94.348030,304.172516 
	C94.349258,310.638489 94.364250,310.648987 101.033707,310.649353 
	C147.522430,310.652008 194.011139,310.649933 241.499878,310.649780 
z"/>
<path fill="#000000" opacity="1.000000" stroke="none" 
	d="
M228.601944,238.911636 
	C239.477158,243.450226 244.087708,252.556931 241.918915,264.559418 
	C239.928574,275.574158 232.039230,282.777954 221.099686,283.294525 
	C216.116913,283.529785 211.111923,283.255341 206.122177,283.395813 
	C202.981094,283.484222 201.607117,282.319702 201.630585,279.059601 
	C201.720413,266.576508 201.688446,254.092194 201.629486,241.608658 
	C201.616989,238.965149 202.492554,237.543396 205.361282,237.660461 
	C212.981033,237.971436 220.672501,236.797928 228.601944,238.911636 
M217.726364,246.505692 
	C214.508392,246.207565 212.772079,247.238937 212.862167,250.907455 
	C213.029388,257.716705 212.892975,264.534515 212.812988,271.347931 
	C212.790115,273.296875 213.275223,274.381989 215.512970,274.615692 
	C221.578415,275.249115 227.619751,271.584778 229.654678,265.782715 
	C232.973923,256.318695 228.809570,249.193222 217.726364,246.505692 
z"/>
<path fill="#000000" opacity="1.000000" stroke="none" 
	d="
M352.847656,252.651062 
	C353.563110,259.415680 353.792969,265.735138 351.889252,271.912994 
	C349.191956,280.666382 343.627808,284.711761 334.927704,284.343384 
	C327.434204,284.026062 322.531647,279.440063 320.596130,270.785278 
	C318.965790,263.494965 319.234589,256.224518 321.299438,249.055496 
	C323.794250,240.393646 329.441864,236.307617 338.212830,236.668030 
	C345.921051,236.984756 350.543701,241.429245 352.348145,250.259155 
	C352.481506,250.911606 352.612213,251.564560 352.847656,252.651062 
M331.030914,262.399963 
	C331.298065,265.358734 330.997589,268.373138 332.109741,271.246765 
	C332.925720,273.355103 333.900421,275.372467 336.432983,275.475922 
	C339.069214,275.583588 340.277466,273.507507 340.788208,271.389557 
	C342.562408,264.031738 342.538055,256.613831 340.723572,249.257919 
	C340.226349,247.242188 339.010529,245.526505 336.639435,245.510880 
	C334.281250,245.495316 333.197083,247.246994 332.413452,249.163345 
	C330.794586,253.122238 331.213593,257.323730 331.030914,262.399963 
z"/>
<path fill="#000000" opacity="1.000000" stroke="none" 
	d="
M148.888702,283.408325 
	C144.764725,284.845886 140.897400,284.458649 137.108551,284.256104 
	C128.006531,283.769501 126.183235,281.087494 128.336151,271.442200 
	C130.897888,272.602478 133.396332,273.751129 135.909454,274.866699 
	C137.791992,275.702423 139.810318,275.844360 141.786774,275.532227 
	C144.100540,275.166809 146.573868,274.610809 147.194077,271.883514 
	C147.792480,269.252197 145.716415,267.972748 143.846024,266.916016 
	C141.537628,265.611786 139.055954,264.618286 136.681595,263.425964 
	C129.328354,259.733337 126.429062,254.528915 127.715691,247.414185 
	C128.727676,241.818207 134.474304,237.399139 141.811203,236.740952 
	C144.121902,236.533676 146.465790,236.622055 148.792099,236.676697 
	C157.024109,236.870041 158.488617,238.861389 156.563354,247.263428 
	C154.147034,247.763962 152.164597,246.110901 149.914673,245.825378 
	C148.117264,245.597305 146.266968,245.324310 144.489334,245.519379 
	C142.298279,245.759796 140.101974,246.636536 139.574982,249.074112 
	C139.066818,251.424667 140.938492,252.728210 142.672714,253.703400 
	C145.419769,255.248108 148.313156,256.530548 151.124191,257.964020 
	C156.700577,260.807678 159.679794,265.268494 159.198074,271.632782 
	C158.727707,277.847229 155.175842,281.608673 148.888702,283.408325 
z"/>
<path fill="#000000" opacity="1.000000" stroke="none" 
	d="
M166.799835,272.389709 
	C171.185043,275.183441 175.493286,276.776672 180.293091,274.793762 
	C183.977783,273.271545 184.496811,270.310272 181.286240,267.978760 
	C178.761520,266.145355 175.772797,264.930817 172.938171,263.548035 
	C165.557480,259.947571 162.559280,254.844299 163.692673,247.656586 
	C164.592346,241.951126 170.193756,237.488144 177.601547,236.755844 
	C179.912949,236.527344 182.262985,236.633514 184.594040,236.669632 
	C193.044907,236.800491 194.298492,238.417084 192.678101,247.070831 
	C190.778656,248.117142 189.197525,246.640457 187.509476,246.261337 
	C185.558685,245.823196 183.670120,245.216232 181.628448,245.376633 
	C179.008667,245.582413 176.366669,246.200760 175.634598,248.960556 
	C174.901764,251.723221 177.344162,253.096741 179.358322,254.228165 
	C181.674164,255.529022 184.201370,256.447540 186.562302,257.675293 
	C193.087341,261.068542 196.026764,266.201141 195.181656,272.532013 
	C194.374359,278.579681 190.358444,282.420380 182.970947,283.931305 
	C179.026123,284.738098 174.977859,284.664185 171.035339,284.038727 
	C164.007294,282.923737 162.518433,280.535461 163.490234,273.437347 
	C163.842773,270.862366 164.988800,271.361908 166.799835,272.389709 
z"/>
<path fill="#000000" opacity="1.000000" stroke="none" 
	d="
M308.625397,257.199585 
	C307.258881,258.296387 306.073914,259.221008 308.024719,260.405396 
	C313.344727,263.635376 314.808777,268.400696 313.278534,274.150665 
	C311.659729,280.233307 306.927704,282.934692 301.244537,284.019684 
	C297.495087,284.735504 293.599030,284.714447 289.823517,283.893433 
	C283.712555,282.564575 282.637970,280.185883 285.170837,273.521881 
	C288.727203,274.604950 292.215240,276.128204 296.149506,275.753754 
	C299.780151,275.408203 302.432190,274.042755 302.538147,270.195709 
	C302.638947,266.537598 299.796997,265.149811 296.707428,264.436584 
	C295.591705,264.179016 294.380280,264.221100 293.221588,264.286774 
	C290.181946,264.459076 288.627441,263.417786 288.619385,260.039703 
	C288.611816,256.869781 289.621979,255.415970 292.922424,255.589798 
	C294.371918,255.666153 295.908600,255.330154 297.306427,254.875900 
	C299.929962,254.023361 301.702087,252.246750 301.194763,249.306046 
	C300.694305,246.405487 298.589966,245.446655 295.730835,245.250885 
	C292.672272,245.041458 289.872864,246.221329 286.993683,246.542694 
	C284.453949,240.679916 285.215149,239.006088 290.753479,237.373657 
	C294.531952,236.259933 298.407623,236.257858 302.132721,236.949371 
	C312.433319,238.861542 315.718384,248.883835 308.625397,257.199585 
z"/>
<path fill="#000000" opacity="1.000000" stroke="none" 
	d="
M359.791260,259.914673 
	C360.142212,253.808838 360.573120,248.174728 360.831970,242.532730 
	C360.987823,239.135406 362.199646,237.409378 365.975800,237.592270 
	C371.451874,237.857483 376.951477,237.748337 382.438049,237.643433 
	C385.655090,237.581924 386.273773,239.320587 386.287415,242.056473 
	C386.301392,244.856827 385.535492,246.529831 382.368774,246.379700 
	C379.879822,246.261673 377.348175,246.622498 374.892517,246.315063 
	C370.636108,245.782166 369.767059,248.348770 369.533508,251.632843 
	C369.248260,255.643829 372.346283,254.485077 374.410950,254.642502 
	C382.954865,255.294006 388.082642,260.207184 388.260864,268.045105 
	C388.455933,276.627380 382.643005,283.264801 373.843872,284.215515 
	C371.052734,284.517090 368.166962,284.499268 365.379486,284.166748 
	C358.957703,283.400848 357.748108,281.228241 359.772125,274.511383 
	C363.185333,274.567169 366.455048,276.044495 369.996552,275.761017 
	C374.119232,275.431030 376.692352,273.713654 376.804321,269.439606 
	C376.923981,264.872620 373.855530,263.512634 369.950775,263.339294 
	C367.792786,263.243500 365.627197,263.292175 363.465454,263.315613 
	C361.423523,263.337738 359.793854,262.896118 359.791260,259.914673 
z"/>
<path fill="#000000" opacity="1.000000" stroke="none" 
	d="
M259.696320,265.006836 
	C259.695831,259.881897 259.695831,255.254532 259.695831,250.916885 
	C258.044678,249.809692 257.101654,250.926910 256.024292,251.063065 
	C254.138443,251.301392 251.580170,253.834320 250.524475,250.603333 
	C249.596909,247.764435 248.912994,244.329910 252.886429,242.483978 
	C256.191223,240.948654 259.348511,239.098755 262.628998,237.507523 
	C267.948303,234.927368 270.862885,236.670288 270.881409,242.452271 
	C270.919098,254.250534 270.769714,266.050842 270.950378,277.846466 
	C271.017242,282.214600 269.370728,283.549469 265.069153,283.488953 
	C260.932739,283.430756 259.413330,282.048737 259.657928,277.964233 
	C259.905762,273.825043 259.702484,269.658783 259.696320,265.006836 
z"/>
</svg>