<svg version="1.1" id="Layer_1" xmlns="http://www.w3.org/2000/svg" xmlns:xlink="http://www.w3.org/1999/xlink" x="0px" y="0px"
	 width="100%" viewBox="0 0 512 512" enable-background="new 0 0 512 512" xml:space="preserve">
<path fill="#000000" opacity="1.000000" stroke="none" 
	d="
M24.655613,231.999878 
	C24.656027,167.014023 24.655764,102.528183 24.661533,38.042343 
	C24.661713,36.043655 24.517172,34.015541 24.796116,32.051712 
	C25.697311,25.707069 32.201065,22.710144 37.612747,26.159544 
	C39.132763,27.128401 40.406906,28.515102 41.698425,29.805620 
	C69.515907,57.601517 97.375450,85.355881 125.051445,113.292061 
	C128.276352,116.547287 130.452637,116.784210 134.244110,114.201279 
	C161.124512,95.889046 191.265793,86.613892 223.276901,82.666985 
	C252.088226,79.114616 280.745056,79.951813 309.225494,85.630707 
	C334.977295,90.765533 359.170166,99.830780 380.854523,114.880524 
	C384.214844,117.212669 386.049561,116.105728 388.441040,113.707687 
	C416.325836,85.746193 444.273041,57.846916 472.212524,29.940002 
	C473.506531,28.647476 474.754181,27.250078 476.245392,26.224184 
	C481.249084,22.781929 487.880676,25.463072 489.114197,31.402527 
	C489.414856,32.850216 489.340149,34.387951 489.340057,35.884277 
	C489.335388,129.696960 489.715454,223.512115 489.129120,317.321228 
	C488.861908,360.077087 473.445831,397.669861 445.095306,429.728271 
	C415.997223,462.632111 379.405029,481.767395 336.014801,487.958252 
	C328.439026,489.039154 320.778992,489.389435 313.095215,489.371826 
	C274.603912,489.283539 236.111176,489.506134 197.621140,489.265625 
	C115.124313,488.750183 41.726212,426.446869 27.598507,345.244751 
	C25.624578,333.899170 24.576416,322.509308 24.622999,310.982452 
	C24.728722,284.821991 24.656012,258.660767 24.655613,231.999878 
M100.831787,112.668373 
	C81.428253,93.316826 62.024719,73.965286 42.621189,54.613739 
	C42.198017,54.789917 41.774845,54.966099 41.351673,55.142281 
	C41.351673,57.401173 41.351688,59.660065 41.351669,61.918957 
	C41.351021,141.079742 41.328415,220.240540 41.379040,299.401276 
	C41.384995,308.715057 41.296917,318.011383 42.107265,327.345551 
	C44.328728,352.933899 52.076027,376.700043 66.136200,398.016205 
	C98.803482,447.541962 145.232178,472.282623 204.528625,472.617279 
	C240.024841,472.817596 275.523132,472.653137 311.020508,472.651459 
	C326.079681,472.650757 340.885712,470.799744 355.427826,466.799438 
	C421.978943,448.492371 472.144989,387.738892 472.548248,314.315948 
	C473.014099,229.491501 472.659363,144.662491 472.624207,59.835472 
	C472.623505,58.094902 473.189606,56.233406 471.931335,54.235542 
	C470.622345,55.445190 469.393585,56.505806 468.248322,57.649975 
	C443.018585,82.856277 417.809662,108.083389 392.566315,133.276047 
	C387.434540,138.397507 383.759338,138.751968 378.611969,134.478745 
	C361.212219,120.033905 340.988892,111.354271 319.462463,105.316444 
	C313.442627,103.627983 313.366333,103.733131 313.355377,110.129791 
	C313.335968,121.462234 313.449341,132.796265 313.291718,144.126617 
	C313.194153,151.139297 307.181915,155.252579 301.513123,152.423386 
	C297.762482,150.551529 296.633728,147.269394 296.646545,143.304062 
	C296.688019,130.471848 296.574371,117.638527 296.709534,104.807632 
	C296.742126,101.714241 295.752136,100.276405 292.625031,99.881882 
	C285.519775,98.985481 278.385529,98.521851 271.259155,97.905746 
	C266.711792,97.512604 265.164307,98.600586 265.241241,103.429924 
	C265.519958,120.924179 265.354919,138.425568 265.346558,155.924271 
	C265.344391,160.423477 265.446381,164.929352 265.236237,169.419800 
	C265.052612,173.343735 262.773346,175.968445 259.044128,176.993713 
	C255.697449,177.913834 252.796204,176.797531 250.581955,174.086548 
	C248.770828,171.869110 248.642731,169.226364 248.645416,166.516373 
	C248.666107,145.684616 248.672150,124.852791 248.624466,104.021118 
	C248.620041,102.091362 249.221207,100.009232 247.597443,97.966530 
	C239.120041,97.892647 230.539932,98.755035 221.954803,99.769600 
	C218.478729,100.180389 217.212280,101.605782 217.271423,105.228233 
	C217.478134,117.890533 217.388824,130.558563 217.325302,143.223984 
	C217.294067,149.453201 214.277206,153.084885 209.261017,153.240540 
	C204.090500,153.401016 200.723038,149.570374 200.680511,143.193130 
	C200.607193,132.194427 200.679291,121.194801 200.629074,110.195839 
	C200.620956,108.415855 201.110275,106.519913 199.959518,104.935974 
	C198.595078,104.023567 197.318130,104.610786 196.049515,104.950584 
	C174.277939,110.781837 153.859100,119.418091 136.200943,133.791122 
	C130.046005,138.800980 126.819000,138.622055 121.132347,132.961609 
	C114.518173,126.377907 107.930931,119.767151 100.831787,112.668373 
z"/>
<path fill="#000000" opacity="1.000000" stroke="none" 
	d="
M213.604050,397.531128 
	C229.718109,406.307739 249.077164,394.511993 248.674210,375.543854 
	C248.543304,369.381836 248.516434,363.210083 248.715607,357.051605 
	C248.824142,353.695526 247.911026,351.626373 244.688400,349.958435 
	C238.437851,346.723328 234.880478,341.091431 233.138351,334.368744 
	C231.777023,329.115479 233.708130,324.834625 238.856537,323.174255 
	C250.911499,319.286560 263.161926,319.455261 275.203094,323.190582 
	C280.445221,324.816742 282.330383,329.480072 280.774353,334.910919 
	C278.914215,341.403137 275.446808,346.887054 269.290863,349.955017 
	C266.020721,351.584747 265.197571,353.746185 265.298187,357.078644 
	C265.484161,363.237854 265.330536,369.406769 265.353455,375.571564 
	C265.404938,389.411133 274.982971,399.950317 288.091431,400.618683 
	C300.403168,401.246429 310.973816,391.674011 312.612427,378.406281 
	C312.673523,377.911407 312.638306,377.404419 312.702576,376.910156 
	C313.363403,371.828888 316.626740,368.680267 321.142792,368.752350 
	C325.844971,368.827362 329.091064,372.381653 329.301910,377.686157 
	C329.969604,394.486938 316.528320,411.885864 299.193665,416.095367 
	C284.705231,419.613617 271.822479,416.200775 260.851776,405.973755 
	C259.760132,404.956085 258.691010,403.914276 257.598267,402.897797 
	C257.492432,402.799316 257.292725,402.801697 257.058289,402.734955 
	C255.460724,402.942627 254.682938,404.356293 253.638016,405.370270 
	C241.783112,416.873596 227.806061,420.350433 212.236099,415.194885 
	C196.588593,410.013672 187.850677,398.490662 184.983810,382.405487 
	C184.722977,380.941956 184.696564,379.416779 184.730499,377.924103 
	C184.852631,372.554291 187.975937,368.981384 192.655411,368.755707 
	C197.301804,368.531616 200.906784,371.903412 201.294144,377.188171 
	C201.936081,385.945770 205.706863,392.753418 213.604050,397.531128 
z"/>
<path fill="#000000" opacity="1.000000" stroke="none" 
	d="
M351.106384,303.236664 
	C336.634766,295.307587 332.412964,279.690826 341.009521,267.089508 
	C349.029663,255.333038 365.235718,253.161911 376.654633,262.314178 
	C385.605408,269.488220 387.985382,282.794556 382.156525,293.075256 
	C376.056488,303.834290 363.961121,307.895538 351.106384,303.236664 
z"/>
<path fill="#000000" opacity="1.000000" stroke="none" 
	d="
M175.241104,290.896912 
	C168.135132,303.988586 154.852966,308.792084 142.588730,303.019073 
	C130.964432,297.547211 125.543190,283.553101 130.487076,271.780487 
	C135.727554,259.301605 149.568573,253.388824 161.912643,258.355713 
	C174.789703,263.537109 180.382828,276.898682 175.241104,290.896912 
z"/>
</svg>