<svg version="1.1" id="Layer_1" xmlns="http://www.w3.org/2000/svg" xmlns:xlink="http://www.w3.org/1999/xlink" x="0px" y="0px"
	 width="100%" viewBox="0 0 976 736" enable-background="new 0 0 976 736" xml:space="preserve">
<path fill="#000000" opacity="1.000000" stroke="none" 
	d="
M107.003311,340.081207 
	C110.922333,330.198883 112.861603,320.083191 116.050385,310.415375 
	C119.200211,300.865631 121.845123,291.147430 124.942108,281.586212 
	C126.673515,276.240936 128.433716,270.749420 129.629028,265.182831 
	C130.356216,261.796295 132.411652,260.405212 135.680618,260.737976 
	C138.828217,261.058350 140.363190,262.977570 140.297318,266.115601 
	C140.259689,267.908569 140.110901,269.591156 139.448441,271.410339 
	C136.056808,280.724121 134.180847,290.527313 130.490417,299.767456 
	C130.044235,300.884644 130.429657,302.333984 130.707489,303.711914 
	C131.622559,301.068665 133.833298,299.630737 135.561401,297.794495 
	C143.698578,289.148010 151.848923,280.417664 161.713516,273.764618 
	C171.914124,266.884979 182.364670,260.544098 194.107803,256.076477 
	C204.162827,252.251068 214.310928,250.343338 224.693924,248.234085 
	C232.682205,246.611298 240.514450,246.358322 248.286530,246.914993 
	C254.644699,247.370407 261.106842,248.584412 267.471771,249.998886 
	C273.212860,251.274704 278.864319,252.546021 284.477966,254.384598 
	C292.787048,257.105988 300.580383,261.046661 307.862610,265.504974 
	C322.415802,274.414734 335.618713,285.279755 346.761292,298.324280 
	C354.669678,307.582520 362.037689,317.268890 368.213470,327.846954 
	C372.899353,335.873047 377.438263,343.971710 381.084808,352.497009 
	C384.641510,360.812286 387.980347,369.246124 390.371307,378.004578 
	C391.734344,382.997650 393.053375,388.003540 394.494598,392.973999 
	C395.030701,394.822845 396.320221,396.233429 398.282501,396.519623 
	C411.747253,398.483490 423.602936,404.909332 435.279053,411.080139 
	C444.273895,415.833832 452.196045,423.036682 455.678375,433.253296 
	C458.364319,441.133423 455.171844,448.222412 450.288757,454.333374 
	C440.457489,466.636719 426.252502,471.970886 412.241119,477.547058 
	C410.109283,478.395477 407.963318,479.068359 405.757660,479.699188 
	C402.246643,480.703400 399.732635,482.767548 400.220612,487.470398 
	C401.041412,495.380463 397.854492,502.912628 397.001892,510.590332 
	C396.175446,518.032227 393.828064,524.912292 392.189667,532.022949 
	C390.552521,539.128296 388.317291,546.170837 385.574127,552.928284 
	C381.712128,562.441772 377.731995,571.957642 372.432709,580.804504 
	C366.837158,590.146057 361.023651,599.318970 354.682800,608.220215 
	C348.466187,616.947021 340.645874,623.948730 333.145508,631.288391 
	C326.664246,637.630798 319.595184,643.282837 311.544464,647.919373 
	C305.459229,651.424011 299.228607,654.556519 293.041870,657.826111 
	C285.933258,661.582764 278.220703,663.333130 270.601776,665.637512 
	C257.205750,669.689087 243.632660,669.511353 229.998627,669.292419 
	C224.201553,669.199341 218.626266,667.246399 212.972961,665.952271 
	C207.962082,664.805237 203.166458,663.126282 198.279999,661.762146 
	C190.773926,659.666626 184.298431,655.722595 177.668106,652.158081 
	C170.704224,648.414185 164.099670,644.021423 157.746033,639.040161 
	C149.159103,632.308044 141.521210,624.681335 134.383774,616.730896 
	C126.515663,607.966553 119.528847,598.295471 113.701485,587.865295 
	C109.966362,581.179932 105.750328,574.726318 103.006081,567.576965 
	C99.173233,557.591736 94.782738,547.838867 91.463104,537.625610 
	C88.241241,527.713257 86.305847,517.508179 84.104553,507.418701 
	C82.809113,501.481110 80.319412,495.313477 81.702271,488.967987 
	C82.730728,484.248718 79.443352,482.372589 76.334946,481.691711 
	C63.715454,478.927551 52.274120,473.276337 41.171852,467.175751 
	C31.861240,462.059692 23.670238,454.898651 20.178507,444.352478 
	C17.724394,436.940186 20.530548,429.952942 25.370413,424.176086 
	C34.463551,413.322388 46.768337,407.551483 59.646618,402.292236 
	C67.708809,398.999756 75.962715,396.788055 84.208176,394.298859 
	C87.616432,393.269928 88.757591,389.584991 89.299408,386.827667 
	C91.583817,375.202271 96.595093,364.658508 100.928406,353.793365 
	C102.742012,349.246033 104.606041,344.765625 107.003311,340.081207 
M221.500366,501.378052 
	C207.914688,502.846344 194.626480,498.404968 181.055710,499.345856 
	C177.910736,499.563934 174.349289,500.194702 171.637650,499.061157 
	C162.865356,495.393982 153.531418,498.255768 144.478577,495.834045 
	C137.972305,494.093536 130.751022,493.054260 123.592987,492.844421 
	C120.317513,492.748383 116.244362,492.051300 112.699699,490.973053 
	C106.204552,488.997253 99.656013,487.493347 92.998703,487.252869 
	C90.415039,492.781647 94.820793,497.330750 94.362015,502.413513 
	C93.896744,507.568298 95.726357,512.625732 97.019012,517.289978 
	C98.593132,522.969788 100.389061,528.782593 102.003021,534.482849 
	C105.072227,545.322876 110.027618,555.321655 114.065590,565.722473 
	C116.206490,571.236938 119.581154,576.015747 122.385399,581.136780 
	C128.282532,591.905884 135.673996,601.621704 143.677750,610.806091 
	C154.252548,622.940735 166.353790,633.513794 180.379028,641.509521 
	C186.682770,645.103333 193.129700,648.591187 200.190628,650.846863 
	C205.438477,652.523254 210.614182,654.236267 216.030869,655.375061 
	C220.743134,656.365845 225.160980,658.674133 230.136383,658.649902 
	C242.789429,658.588257 255.346039,658.969360 267.780182,654.970825 
	C275.505798,652.486450 283.355194,650.622375 290.692749,646.938049 
	C295.658936,644.444397 300.318024,641.367310 305.223297,638.961487 
	C312.460541,635.411926 318.202942,630.083069 323.926880,624.930847 
	C331.578735,618.043152 339.094910,610.936157 345.289429,602.433289 
	C352.024292,593.188721 358.023743,583.561157 363.842621,573.764465 
	C369.448273,564.326843 373.508423,554.158386 376.908020,543.843750 
	C379.388367,536.318298 382.457062,528.943115 383.955322,521.011658 
	C384.676758,517.192566 385.170929,513.272278 386.121490,509.499725 
	C387.631592,503.506683 389.552277,497.606995 389.623840,491.363464 
	C389.697021,484.981628 388.145325,484.188202 382.211792,486.401764 
	C378.435547,487.810516 374.382721,489.019592 370.402527,489.203033 
	C365.415527,489.432922 360.803497,491.179230 355.948792,491.889221 
	C347.904480,493.065704 340.028748,495.419312 331.785583,495.394592 
	C330.621826,495.391083 329.395477,495.275726 328.303436,495.584564 
	C318.121399,498.464539 307.516235,497.756714 297.164337,499.261078 
	C292.105591,499.996246 286.850983,499.417542 281.685547,499.374481 
	C277.191345,499.337036 272.535980,500.440735 268.897247,502.225067 
	C256.156921,508.472626 243.285873,514.413574 230.408356,520.361084 
	C226.937042,521.964294 223.975784,521.763611 222.308395,518.572021 
	C220.550430,515.207214 221.784882,512.332886 225.575974,510.579468 
	C231.274765,507.943756 236.815796,504.966919 242.423904,502.135132 
	C242.380890,501.883026 242.337891,501.630951 242.294891,501.378845 
	C235.696625,501.378845 229.098358,501.378845 221.500366,501.378052 
M327.346375,393.357788 
	C319.485504,389.280151 310.705566,391.936432 302.347198,389.823700 
	C292.645172,387.371277 282.025482,388.203705 271.993530,387.972412 
	C247.197098,387.400757 222.332230,385.960419 197.409973,388.894104 
	C185.255737,390.324829 172.772812,391.042694 160.406296,391.327667 
	C152.991074,391.498566 145.761200,393.250061 138.426422,393.968109 
	C134.104736,394.391174 129.234299,394.343750 124.941574,395.981201 
	C120.026405,397.856079 114.793503,398.342346 109.733368,399.105927 
	C105.818100,399.696777 102.357643,401.945221 98.275215,401.669189 
	C97.015404,401.583984 96.822197,403.113892 96.314331,404.189575 
	C94.265564,408.529083 94.985497,413.290497 93.998726,417.707947 
	C92.031708,426.513702 91.010269,435.416229 90.446808,444.344604 
	C89.933517,452.478058 90.725319,460.694672 90.195473,468.825989 
	C89.879059,473.681793 92.467728,475.618317 96.080299,476.425232 
	C106.341553,478.717133 116.643921,480.956512 127.037910,482.481964 
	C135.706161,483.754120 144.409470,485.776581 153.004288,486.207733 
	C163.382889,486.728333 173.506287,489.514648 184.017441,488.825775 
	C190.146255,488.424103 196.363754,489.301666 202.591278,490.115143 
	C214.299515,491.644470 226.349716,490.556000 238.257721,490.556000 
	C232.048203,490.262238 227.164307,485.855896 221.172684,485.180664 
	C219.350769,484.975342 217.913956,483.136932 217.697891,480.876038 
	C217.492554,478.727203 217.926163,476.848816 219.793579,475.633911 
	C222.367538,473.959442 225.327393,474.090240 227.871307,475.224121 
	C231.140244,476.681213 234.640793,477.380493 237.868561,478.740967 
	C243.482819,481.107239 249.515503,482.110138 255.259598,483.832123 
	C261.047333,485.567200 266.988403,487.381226 272.912262,488.904633 
	C279.068268,490.487762 284.684998,487.761688 290.625580,488.539978 
	C294.877197,489.096985 299.678467,489.678314 303.522156,488.284454 
	C312.600342,484.992340 322.084503,487.496979 331.319183,485.080688 
	C337.080200,483.573242 343.525970,482.803101 349.685150,482.036499 
	C353.780914,481.526703 358.250275,481.632172 362.234314,480.270874 
	C369.490936,477.791412 377.126465,477.065460 384.471252,474.888214 
	C390.813354,473.008179 391.325623,473.183807 391.688049,466.640167 
	C392.542511,451.212189 390.709167,435.916321 389.427673,420.616852 
	C389.097137,416.670654 387.695648,412.699829 387.276550,408.602112 
	C387.098358,406.859863 385.758789,404.264740 384.359772,403.790833 
	C378.919373,401.947876 373.309784,400.223083 367.634766,399.570068 
	C362.751373,399.008148 357.976868,397.766327 353.202759,396.948425 
	C344.884064,395.523315 336.708374,393.374847 327.346375,393.357788 
M337.892242,304.647064 
	C330.499481,296.760590 322.820160,289.168427 314.005646,282.863556 
	C309.344849,279.529724 304.607758,276.218231 299.578369,273.501556 
	C289.191559,267.891022 278.566650,263.028381 266.673248,260.958740 
	C260.052887,259.806702 253.657227,257.257599 246.778290,257.381927 
	C239.387009,257.515503 232.097855,257.914398 224.687637,258.994751 
	C215.031937,260.402496 205.744888,262.831787 196.876068,266.279999 
	C183.260239,271.573853 171.192230,279.986206 159.935471,289.176239 
	C150.175476,297.144318 141.715408,306.592010 134.142120,317.424866 
	C140.602905,313.448700 146.538376,309.731903 152.256180,305.441437 
	C159.757904,299.812439 167.946411,294.987396 175.735138,289.653198 
	C178.138824,288.006989 180.676315,288.037079 182.858414,290.375397 
	C185.039169,292.712250 184.890717,295.121033 183.071777,297.513855 
	C180.321594,301.131683 176.049973,302.773193 172.489670,305.312042 
	C165.602753,310.223083 158.084656,314.280334 151.394302,319.427368 
	C143.766754,325.295349 135.516357,330.161102 127.669807,335.648590 
	C122.948845,338.950195 117.303467,341.387604 115.077347,347.572693 
	C114.307487,349.711731 114.050468,351.934692 113.026749,354.099670 
	C109.200203,362.192200 105.551987,370.435852 102.798210,378.934296 
	C101.773277,382.097351 98.813164,385.341339 100.703926,389.035553 
	C108.053467,389.432648 114.917229,386.922638 122.061409,386.129761 
	C130.094589,385.238190 137.957611,382.627808 146.190140,382.638336 
	C147.354523,382.639832 148.707809,382.926392 149.653839,382.448181 
	C157.797195,378.332275 166.775726,381.258453 175.392151,379.108490 
	C185.600464,376.561401 196.749680,377.512146 207.333389,377.234070 
	C231.274750,376.605072 255.313095,375.027771 279.371521,378.260132 
	C291.167938,379.845001 303.349121,379.511597 315.353912,380.480438 
	C323.039825,381.100739 330.514618,383.972565 338.365021,382.694916 
	C338.672577,382.644836 339.050354,382.727234 339.333496,382.870331 
	C344.992859,385.731384 351.356018,385.358398 357.354950,386.413849 
	C363.410004,387.479126 369.415039,388.615845 375.351288,390.178314 
	C377.150299,390.651855 379.116486,391.213928 380.578339,389.844940 
	C382.225952,388.302094 381.740356,386.143890 381.139099,384.212952 
	C380.853088,383.294617 379.997803,382.531494 379.798004,381.611694 
	C377.435730,370.735596 372.165863,360.971558 368.151154,350.725952 
	C365.870331,344.905273 362.378021,339.799377 359.389587,334.394562 
	C353.540558,323.816284 345.900299,314.520142 337.892242,304.647064 
M65.609070,466.673248 
	C68.649895,467.764618 71.720108,468.781555 74.723404,469.967957 
	C77.816849,471.190002 79.422302,470.551300 79.601112,466.936310 
	C80.211319,454.600342 79.163597,442.292877 81.220398,429.868591 
	C82.426315,422.584167 84.553802,415.087708 83.789398,407.446564 
	C83.732292,406.875763 84.894958,406.646576 84.248306,405.624084 
	C75.932465,407.605469 67.692558,410.092926 59.904144,413.756622 
	C51.036034,417.928192 41.841938,421.816895 35.241959,429.467682 
	C28.988522,436.716766 28.248053,440.839172 35.395981,448.716644 
	C43.404102,457.542084 54.372448,461.670105 65.609070,466.673248 
M444.322754,442.846954 
	C446.229218,440.477356 446.005096,438.027832 444.725891,435.450287 
	C441.889465,429.735046 437.282898,426.151825 432.024323,422.527100 
	C421.918091,415.560913 410.887695,411.318604 399.237640,407.667664 
	C397.279816,411.986359 400.181183,415.681427 400.017853,419.236267 
	C399.543884,429.552368 403.372620,439.407196 402.423309,449.715027 
	C401.952362,454.828705 402.368927,460.022369 402.347076,465.179688 
	C402.332642,468.589783 404.097992,469.080688 406.911713,468.129730 
	C414.496216,465.566376 421.529755,461.758545 428.626495,458.172150 
	C435.102936,454.899200 440.791962,450.432343 444.322754,442.846954 
z"/>
<path fill="#000000" opacity="1.000000" stroke="none" 
	d="
M510.348022,550.000122 
	C510.348755,566.498413 510.357025,582.496765 510.341919,598.495056 
	C510.339417,601.154480 510.432159,603.636230 512.075378,606.050903 
	C514.046936,608.948059 514.845337,612.351868 514.376038,615.959351 
	C514.249207,616.934082 514.039368,618.470642 514.550964,618.866821 
	C519.363281,622.593140 517.788391,628.546631 519.638855,633.289429 
	C521.393616,637.786926 520.485657,642.834595 520.024902,647.622559 
	C519.826965,649.679138 517.806763,649.284363 516.384705,649.245361 
	C513.627441,649.169739 512.018921,647.395447 511.808594,644.904968 
	C511.449890,640.656921 511.412445,636.504395 509.919312,632.306458 
	C509.049927,629.862122 508.926636,627.232422 506.839722,625.335571 
	C505.089355,623.744629 505.731171,621.606873 505.682983,619.679504 
	C505.592407,616.057617 506.007477,612.397583 503.648834,609.192322 
	C501.684448,606.522888 501.609650,603.409363 501.617767,600.208435 
	C501.679565,575.877808 501.414307,551.543091 501.807587,527.218750 
	C501.913818,520.649231 503.044495,513.940308 505.263275,507.596497 
	C506.308838,504.607056 505.928833,501.453156 506.502350,498.374329 
	C508.313141,488.653931 512.415161,479.548096 516.304626,470.950348 
	C521.070862,460.414337 517.585510,448.665527 523.677429,438.915009 
	C525.828003,435.472900 527.591492,431.747375 530.487793,428.856842 
	C532.459106,426.889404 534.040710,424.932739 533.671509,421.960205 
	C533.355286,419.413544 535.236938,418.098877 536.761963,416.617737 
	C544.057800,409.531708 551.360168,402.454987 555.616211,392.483704 
	C552.111267,391.125275 549.499146,388.531311 547.159546,385.667633 
	C544.498291,382.410278 539.445374,383.781464 536.856018,379.697754 
	C535.023682,376.807983 532.813904,373.862762 529.503113,371.807770 
	C526.317749,369.830688 526.664978,364.199219 529.996582,361.412659 
	C536.707764,355.799316 539.278564,347.403992 544.534790,340.869385 
	C546.343384,338.621002 545.016296,337.024170 543.578430,336.399811 
	C537.421082,333.726013 534.050903,328.045532 529.347290,323.829224 
	C527.533142,322.203033 525.707642,321.290253 523.145752,321.329712 
	C513.815674,321.473541 504.453125,320.929108 495.158813,321.521820 
	C487.813568,321.990265 480.964111,325.060394 474.446747,328.440094 
	C470.685608,330.390533 466.980560,331.529510 462.675354,331.473785 
	C457.970703,331.412842 453.262604,330.738190 448.543335,332.998169 
	C445.800995,334.311462 441.889496,334.144104 440.035614,329.793274 
	C443.977203,324.397186 448.815582,322.038452 455.993713,322.931183 
	C460.915497,323.543243 466.195801,322.796661 470.996674,320.154419 
	C480.298492,315.035034 490.143066,311.735535 501.041382,312.593933 
	C503.738342,312.806366 506.613739,313.164856 509.276947,311.951752 
	C506.588867,303.404388 506.652588,303.285858 514.444092,302.146423 
	C514.209167,301.221161 514.110657,300.255005 513.726074,299.420685 
	C512.239868,296.196594 516.704956,290.965363 510.564514,289.414581 
	C506.826508,288.470581 504.141785,285.748871 500.014404,284.902832 
	C494.379883,283.747894 488.534027,282.122192 483.000610,279.967102 
	C481.519714,279.390320 479.749329,279.422852 478.110565,279.413910 
	C474.952362,279.396637 471.962006,279.555817 469.628906,276.565063 
	C467.869873,274.310150 464.925385,275.465240 462.525482,275.444183 
	C459.658997,275.419098 457.283630,274.971649 456.125000,272.043732 
	C458.623718,265.714996 464.796814,265.743958 470.409302,267.692017 
	C476.663208,269.862732 483.146332,271.187531 489.569641,272.762939 
	C497.852478,274.794434 505.930634,277.660614 514.448730,280.275299 
	C516.600891,274.291138 520.818787,269.259796 523.315674,263.322998 
	C523.988525,261.723206 524.878906,260.420105 525.975647,259.238922 
	C528.512695,256.506622 528.746887,252.174820 527.044617,250.516495 
	C523.394836,246.960953 523.888977,242.318375 522.303406,238.348312 
	C521.128052,235.405334 519.116882,232.964523 518.136292,230.246292 
	C514.949097,221.411301 509.525299,213.892303 505.061890,205.816895 
	C500.299011,197.199677 501.048401,187.773422 502.110748,178.728561 
	C502.558624,174.915131 507.045654,171.671448 509.366547,167.962204 
	C513.807434,160.864777 520.590637,156.634964 526.870605,151.441223 
	C536.684326,143.324966 547.119934,145.113373 557.762512,144.709549 
	C560.007996,144.624344 561.505432,146.468002 563.756653,146.806747 
	C569.660522,147.695038 573.127563,146.332825 575.585266,140.445892 
	C578.663452,133.072861 581.471069,125.550903 585.664307,118.749382 
	C592.627380,107.455154 597.736328,95.133865 606.135620,84.568779 
	C610.304504,79.324898 613.926453,72.948860 613.834106,65.302719 
	C613.774292,60.351574 618.378113,57.167252 620.449280,52.911228 
	C624.580505,44.422287 628.375610,35.692215 633.888855,27.968601 
	C636.068237,24.915348 638.924255,22.283998 641.753113,19.777739 
	C643.513184,18.218414 652.663452,21.706106 654.179565,23.926531 
	C659.211548,31.296152 663.984314,38.841953 668.980530,46.218479 
	C672.189941,50.956989 672.468628,56.317184 673.986145,61.330242 
	C674.801636,64.024307 675.517151,67.007126 676.462585,69.686546 
	C680.072327,79.916939 677.870178,90.395538 678.223877,100.736916 
	C678.472412,108.003471 678.667480,115.005859 681.879272,121.837448 
	C683.694885,125.699547 681.426575,130.650238 684.214172,134.785629 
	C685.155396,136.181900 686.988220,137.342270 686.074463,140.839859 
	C690.461853,135.997116 693.955811,136.520111 698.449158,138.484116 
	C708.923950,143.062561 718.041077,149.902847 727.737915,155.680954 
	C732.020142,158.232620 735.179016,163.995132 739.132629,167.459045 
	C744.681641,172.320831 747.657043,178.239685 751.088257,184.226440 
	C751.984924,185.790817 752.326111,187.238525 752.327087,188.901901 
	C752.331604,196.734406 752.207275,204.569519 752.379211,212.398209 
	C752.456543,215.921097 751.476746,217.843521 747.620789,217.372498 
	C744.996765,217.051971 742.607178,217.647751 740.899292,219.787552 
	C739.101257,222.040268 736.644714,221.287643 734.408264,221.343109 
	C730.301453,221.444962 728.465332,223.409714 728.293030,227.523132 
	C728.109192,231.909515 729.358582,236.455627 726.715088,240.647064 
	C725.879578,241.971848 727.621216,243.073837 728.517212,243.897064 
	C732.473999,247.532410 734.855225,251.816742 734.365601,258.311707 
	C739.247803,253.002563 745.534119,254.959900 750.813171,252.847427 
	C757.370361,250.223526 765.048645,251.073746 771.219360,246.737076 
	C775.847595,243.484467 781.724731,244.939407 786.781982,242.757706 
	C791.669922,240.649033 796.780151,238.965012 802.210022,238.138184 
	C804.518005,237.786758 806.416382,234.646622 808.469238,232.739746 
	C812.181519,229.291306 818.437988,229.779114 822.091370,234.081253 
	C820.084900,236.545547 818.529724,239.514526 814.540833,239.467606 
	C813.815613,239.459061 812.893799,239.914337 812.381714,240.456650 
	C803.443726,249.921860 791.070251,250.612747 779.518616,253.398315 
	C778.718811,253.591187 777.710815,253.478577 777.128540,253.931152 
	C770.172974,259.337769 761.209229,258.394897 753.588562,261.484253 
	C748.111328,263.704712 742.307068,262.851166 736.826477,263.840485 
	C736.520691,266.879730 738.577393,267.806091 739.830139,269.205780 
	C741.159668,270.691284 742.648499,272.013855 742.341797,274.333008 
	C741.847839,278.068665 743.983276,278.701752 747.175842,278.688843 
	C768.339905,278.603271 789.504517,278.651276 810.668945,278.640961 
	C815.275085,278.638702 819.374146,275.792419 824.232971,276.539093 
	C827.073425,276.975555 828.420166,277.637329 828.368713,280.700165 
	C828.320068,283.599640 827.773743,285.035492 824.312683,285.453522 
	C802.511414,288.086548 780.632202,287.415680 758.772278,287.300537 
	C752.773071,287.268951 747.081421,287.125458 743.251465,293.863007 
	C739.488892,289.051331 735.196045,286.456970 729.408691,287.150482 
	C727.799438,287.343353 727.149475,285.443848 725.898804,284.171082 
	C727.478882,281.002899 730.090637,278.959778 734.191833,277.370789 
	C730.213989,273.177460 728.560608,268.352600 726.601440,263.592194 
	C725.057251,259.840210 726.465210,255.924255 724.114258,252.169037 
	C721.161621,247.452438 718.217957,243.590164 712.430786,242.855652 
	C711.910828,240.607086 713.428833,239.348999 714.804810,238.958221 
	C718.240601,237.982544 718.504578,234.819473 719.373962,232.441238 
	C720.065491,230.549255 720.720825,227.461349 718.058655,226.171402 
	C715.507324,224.935211 712.386353,224.370758 710.141235,226.782654 
	C704.818237,232.501068 697.806641,232.723846 690.797180,233.412384 
	C683.439331,234.135147 675.785461,233.786301 669.434509,238.843246 
	C668.456482,239.621948 666.540405,239.348022 665.057983,239.349258 
	C631.061584,239.377731 597.060852,239.680801 563.071411,239.196686 
	C552.836975,239.050903 542.688416,236.386917 533.886719,230.556351 
	C532.336853,229.529678 530.700562,229.965668 528.955444,228.760498 
	C529.983398,233.621216 530.686279,239.037399 532.848572,242.099930 
	C536.282959,246.964157 534.196533,253.724976 539.593445,257.569153 
	C541.061340,258.614655 541.412720,262.451111 538.240906,263.116821 
	C533.751160,264.059143 531.705139,266.861053 529.829407,270.629456 
	C528.259216,273.783936 527.975708,277.461212 525.088257,280.197876 
	C523.343811,281.851166 524.208435,284.029449 527.290894,284.709656 
	C533.108826,285.993530 538.667236,287.949768 541.898682,294.139709 
	C541.343689,296.235016 539.099304,297.414948 536.984863,299.260803 
	C534.583801,295.927185 530.649841,295.596985 527.301514,294.117981 
	C524.375793,292.825684 522.462036,293.899567 522.349609,297.345581 
	C522.259766,300.099182 522.910461,303.046326 520.131470,304.820953 
	C523.754028,310.636047 528.241638,313.551331 535.125916,312.774597 
	C540.391724,312.180450 545.924744,311.879639 551.073120,312.853516 
	C557.265869,314.024872 563.714905,313.823761 569.710815,316.307098 
	C572.190247,317.334015 572.425903,318.844147 572.191040,320.965332 
	C571.891724,323.668396 569.761292,323.071014 568.029480,323.393219 
	C560.488525,324.796356 553.486084,320.540009 546.002319,321.375366 
	C544.072083,321.590851 541.992310,321.080536 540.100403,323.132355 
	C544.237122,328.630554 549.959351,331.586884 556.483765,332.518158 
	C561.396423,333.219360 564.586914,333.819305 567.114075,339.515747 
	C569.761108,345.482269 575.411682,350.730042 582.570435,352.452423 
	C585.026672,353.043427 586.830627,353.960419 588.367188,355.768127 
	C591.957642,359.992462 597.079712,362.884369 599.186340,368.439026 
	C599.526062,369.334686 601.032288,370.487976 601.859436,370.386139 
	C607.571533,369.682953 612.566284,373.272888 618.303894,372.777771 
	C621.951538,372.463043 625.022705,371.331116 627.807922,369.251953 
	C636.750488,362.576111 646.412842,357.493469 657.224976,354.419708 
	C660.493286,353.490601 663.204895,350.697845 666.265747,348.920898 
	C670.533630,346.443146 673.877502,342.713226 679.571838,342.231659 
	C683.256165,341.920074 687.133240,338.721313 689.926086,336.213409 
	C694.590088,332.025238 700.791138,331.698212 705.314575,328.418854 
	C710.933472,324.345459 717.965637,322.396179 722.518860,316.751770 
	C724.360107,314.469177 726.701355,313.122559 729.867676,312.273468 
	C734.959534,310.908081 739.296082,307.579437 741.618958,302.471039 
	C742.710815,300.070007 744.888123,298.830627 746.346130,296.970093 
	C753.234619,299.782715 754.063416,302.944061 749.430054,309.125000 
	C747.855164,311.225861 746.057861,313.673157 743.797241,314.636353 
	C739.554016,316.444336 737.246216,319.959473 734.346985,322.876617 
	C736.090088,327.915894 740.497864,331.226257 740.874695,337.069275 
	C741.064331,340.009918 744.204285,343.071259 745.344238,346.534119 
	C746.751953,350.810425 747.091125,355.076965 745.381592,359.028870 
	C744.385925,361.330383 745.035706,362.376770 746.349365,363.717926 
	C749.012512,366.436584 751.802246,369.038818 754.353821,371.857422 
	C760.885803,379.072906 765.876648,387.303802 771.098511,395.503845 
	C775.387512,402.239105 775.618408,408.727905 776.638733,415.855804 
	C777.736938,423.527710 781.666321,430.586060 785.918335,437.166351 
	C790.297180,443.942932 793.351562,451.150513 794.357544,459.182495 
	C794.460571,460.004639 794.256042,461.258728 794.712280,461.582611 
	C799.512268,464.989990 800.164673,471.070557 803.753906,475.336121 
	C806.580383,478.695038 809.577087,482.149384 810.590942,486.914001 
	C811.411865,490.771637 816.047485,492.435486 817.249817,496.489319 
	C819.274902,503.316559 821.960999,509.961151 822.341614,517.188110 
	C822.851501,526.871094 823.731201,536.621216 824.929871,546.132812 
	C825.906738,553.885071 826.217041,561.539185 826.254211,569.214355 
	C826.443909,608.375977 826.379761,647.539124 826.268860,686.701294 
	C826.261780,689.191467 828.140564,693.330322 822.901733,693.319275 
	C817.957764,693.308838 817.646240,689.797729 817.647034,686.073303 
	C817.656067,643.577759 818.097351,601.073730 817.284851,558.593689 
	C817.114502,549.687500 817.029297,540.352722 815.223206,531.630371 
	C813.593689,523.760681 814.511963,515.564209 811.590393,507.997620 
	C809.563721,502.748535 809.003540,496.794373 804.189453,492.846039 
	C801.846436,490.924347 801.000610,487.938599 799.699768,485.319061 
	C798.094543,482.086578 795.310242,479.288330 794.089844,476.268768 
	C791.589355,470.082123 785.821533,465.896881 785.192322,458.312317 
	C784.764221,453.152924 781.921631,447.746582 778.572327,442.894684 
	C774.764954,437.379181 772.679932,430.694916 769.647522,424.617859 
	C767.154419,419.621582 767.921448,414.315979 767.590698,409.078918 
	C767.205688,402.981720 761.968872,399.296844 759.686890,394.157715 
	C756.240051,386.395538 749.620850,381.041138 745.070557,374.112305 
	C743.029297,371.004150 740.549255,367.717682 735.900940,367.186707 
	C731.994812,366.740479 731.084656,363.985138 732.888367,360.274200 
	C733.392883,359.236298 733.624207,358.016052 734.301331,357.122284 
	C735.573608,355.443054 738.266907,354.058044 737.398438,351.841614 
	C736.224243,348.844727 736.394775,345.285675 733.994934,342.812531 
	C732.272400,341.037323 731.702271,339.047760 731.549011,336.575989 
	C731.218628,331.248657 726.518372,328.954773 721.592102,330.840485 
	C711.082214,334.863434 701.647400,340.778351 691.891663,346.218597 
	C687.980774,348.399445 683.974792,351.544678 678.565857,351.786835 
	C675.347351,351.930908 672.289307,355.500458 669.145447,357.508484 
	C665.159363,360.054382 661.420166,363.960541 657.101807,364.775330 
	C651.197021,365.889435 646.268860,368.463531 641.268677,371.198181 
	C637.689819,373.155487 633.881653,375.102692 631.069519,377.940125 
	C628.124756,380.911346 625.057434,381.386719 621.271606,381.444977 
	C612.583130,381.578613 604.179993,380.520691 595.969299,377.504639 
	C591.083191,375.709839 589.438477,370.836700 587.448608,367.354950 
	C584.322388,361.884918 579.247375,360.219910 574.687744,357.852295 
	C570.328369,355.588684 566.941345,352.221222 563.211426,349.413879 
	C556.019531,344.000793 551.355835,343.730255 547.398621,351.751984 
	C545.492493,355.615997 543.291321,358.982941 540.851196,362.434357 
	C537.689758,366.905975 539.753662,372.421906 546.037903,374.402863 
	C553.616333,376.791687 556.894592,384.272278 563.609253,387.649506 
	C565.536865,388.619110 565.053040,393.311157 563.976746,395.689850 
	C562.054504,399.938019 560.813049,404.716064 556.773132,407.833588 
	C551.492310,411.908752 547.823792,417.543457 544.164856,422.891541 
	C539.013123,430.421661 534.245361,438.441254 530.896484,446.879822 
	C529.285950,450.938080 527.604126,455.758362 528.231262,460.763702 
	C528.716675,464.637634 527.735901,468.070984 525.495483,471.865692 
	C523.173950,475.797882 522.390442,480.968628 520.500488,485.497101 
	C518.264465,490.854889 516.448792,496.423248 514.915466,502.027466 
	C513.803711,506.090912 513.652527,510.341156 512.539612,514.508240 
	C509.484344,525.948303 510.378693,537.784058 510.348022,550.000122 
M675.212463,135.995834 
	C673.749146,134.593140 673.651245,132.785599 673.644897,130.919281 
	C673.638123,128.922943 674.299072,126.402863 673.348145,125.017792 
	C668.076477,117.338593 670.026611,108.742393 669.623291,100.437286 
	C669.546448,98.855438 670.098083,97.009720 668.393738,96.145142 
	C666.704163,95.434319 666.263855,97.292236 665.097168,97.290878 
	C657.268311,97.281738 649.430176,97.456512 641.616333,97.101753 
	C639.259949,96.994774 636.893494,94.633636 638.030457,92.209518 
	C639.322937,89.453842 639.398804,86.554230 640.371887,83.843605 
	C637.824768,83.351707 636.007812,81.376282 633.199524,80.972603 
	C629.516846,80.443237 628.848022,76.744827 631.583679,73.824127 
	C634.679077,70.519356 636.587158,66.819916 637.956604,62.414948 
	C640.019714,55.778996 648.352722,54.611397 651.845276,59.106129 
	C653.543396,61.291637 655.430115,62.919312 658.505798,62.674583 
	C660.680115,62.501572 662.906494,62.460461 665.160278,63.667580 
	C662.437805,49.199051 654.319031,38.505089 646.002686,28.360813 
	C638.299805,34.886593 635.439270,43.404957 631.468994,51.253059 
	C628.664978,56.795788 623.851746,62.015793 622.931152,67.598534 
	C621.719910,74.943825 618.217834,80.797394 615.382446,87.148254 
	C611.734314,95.319580 603.718018,100.675880 600.987671,109.590065 
	C599.164001,115.543694 595.534607,120.735054 592.169556,125.955879 
	C587.057495,133.887131 586.030029,144.063065 578.557556,150.696808 
	C578.479065,150.766434 578.762390,151.243484 579.048645,151.961288 
	C582.250488,146.542953 587.235046,146.160355 592.550049,146.646591 
	C595.546143,146.920685 597.120178,146.193054 597.961365,142.594925 
	C598.896729,138.593658 600.861023,134.668274 602.675781,130.895676 
	C604.905273,126.260872 610.152954,125.922935 614.473755,124.816795 
	C618.032898,123.905624 619.738403,126.657631 620.848999,129.700607 
	C621.017151,130.161270 621.944458,130.327835 622.497864,130.667480 
	C629.500244,134.965271 636.837097,137.879471 645.320862,136.706696 
	C647.443909,136.413208 649.669189,136.506546 651.808655,136.755661 
	C656.850098,137.342621 659.044800,140.107391 658.268311,144.636902 
	C657.615234,148.446579 654.152344,148.591293 651.516235,149.287399 
	C644.434448,151.157547 640.296875,154.778458 640.332458,163.152359 
	C640.345154,166.152023 640.526855,169.173630 640.230835,172.145309 
	C639.955872,174.905182 639.138855,178.027557 636.401733,179.043381 
	C633.381836,180.164139 630.251953,179.468964 627.893799,176.649887 
	C626.203918,174.629669 624.088379,172.970718 622.325928,171.004364 
	C620.701477,169.191956 619.440491,169.450470 617.731995,170.968964 
	C614.588745,173.762619 612.826538,177.572418 610.647705,180.956696 
	C609.039978,183.453751 607.357178,183.141418 605.313477,183.363968 
	C602.773438,183.640533 600.410767,182.190582 600.216187,180.308823 
	C599.838745,176.658646 596.966370,174.622467 595.913208,171.671936 
	C594.789795,168.524826 590.781677,169.365601 589.973511,166.385132 
	C588.749390,161.870270 584.843811,159.771698 581.282776,156.323685 
	C580.085266,160.619400 575.918762,160.061386 573.181396,162.517700 
	C566.370239,168.629593 560.830322,175.397308 556.471008,183.228378 
	C554.817627,186.198456 552.561218,185.713074 550.627197,184.823608 
	C548.544739,183.865891 546.748596,181.841629 548.252625,179.153915 
	C549.597229,176.751205 550.669800,174.180679 553.004517,172.353897 
	C558.524719,168.034744 559.241516,160.391953 564.670654,156.404373 
	C558.076477,152.532730 551.392273,153.154510 544.853943,153.473358 
	C540.636230,153.679062 536.444214,154.865952 533.026123,157.652222 
	C526.978088,162.582260 521.139709,167.491196 516.178040,173.840637 
	C512.056519,179.115005 510.052887,183.783661 510.146698,190.270660 
	C510.199799,193.942917 511.335724,197.202377 512.558655,200.216202 
	C515.544800,207.575424 519.464172,214.724777 527.285767,218.029007 
	C530.405579,219.346954 533.713562,220.216232 536.718567,221.938446 
	C547.763550,228.268463 559.627747,230.880371 572.410461,230.740692 
	C600.572632,230.432953 628.740479,230.675186 656.905884,230.618958 
	C661.589661,230.609619 666.642456,231.869888 670.295471,227.232742 
	C670.816223,226.571793 672.495422,226.852264 673.627686,226.639648 
	C680.087219,225.426682 686.517212,224.036148 693.173584,224.547379 
	C694.986694,224.686615 696.060974,223.367249 696.928284,221.965927 
	C694.338318,218.842529 692.130127,212.348801 691.704102,205.973267 
	C691.210449,198.586517 687.432678,192.100098 686.217529,184.875671 
	C684.980835,177.523376 680.734131,170.850540 681.555420,162.933121 
	C682.006042,158.590012 682.599304,153.903046 678.279724,150.557816 
	C677.613342,150.041748 677.622375,148.350586 677.701721,147.229935 
	C677.964478,143.515366 677.342102,140.029831 675.212463,135.995834 
M742.397827,187.223236 
	C739.914001,185.357834 740.570129,181.625153 738.871704,179.918839 
	C731.652588,172.666153 725.652710,164.001663 716.010132,159.383301 
	C713.036987,157.959335 710.378967,155.886368 707.542175,154.167389 
	C700.971008,150.185516 695.106262,144.593445 686.686035,144.772430 
	C685.870728,146.993256 687.066101,148.404434 688.323181,149.781372 
	C689.327820,150.881790 690.322021,151.885712 690.335022,153.602448 
	C690.382324,159.831863 690.237671,165.984665 692.168945,172.158569 
	C694.136658,178.449234 695.435242,185.126755 697.170837,191.373001 
	C699.580627,200.045471 702.281250,208.433487 702.363281,217.498825 
	C702.373596,218.634842 702.259521,219.916168 704.710327,220.513367 
	C706.443848,215.348709 712.015564,217.665970 715.753296,215.447906 
	C719.388794,213.290512 723.266174,211.975098 727.543274,212.677750 
	C733.042786,213.581192 737.365967,210.676865 741.935364,208.489288 
	C743.170044,207.898178 743.634766,206.901749 743.584229,205.672043 
	C743.339722,199.718597 744.430542,193.718719 742.397827,187.223236 
M625.566528,142.098129 
	C622.448303,138.573395 617.495667,138.100403 614.002563,135.132843 
	C612.665649,133.997116 611.457764,135.231354 610.780396,136.403030 
	C609.883118,137.955307 609.053955,139.589355 608.493774,141.286697 
	C606.269897,148.025101 604.289795,154.905396 595.662415,156.292618 
	C598.081665,160.125763 599.886536,163.755447 602.963379,166.598053 
	C605.103210,168.574951 606.643677,168.683945 608.780212,166.622604 
	C612.176025,163.346329 615.081238,159.512848 618.219666,157.399048 
	C625.350403,157.202118 625.454407,164.543945 630.836487,167.066650 
	C632.038574,159.395203 631.493164,151.819733 637.006592,145.820267 
	C632.950806,144.797455 628.631287,146.573029 625.566528,142.098129 
M644.646301,71.918175 
	C643.328552,73.973755 643.289124,75.796471 646.001160,76.507233 
	C649.598816,77.450089 650.385803,79.935020 650.370667,83.203766 
	C650.361938,85.076675 649.592834,87.746582 652.170105,88.309807 
	C655.004639,88.929260 659.152771,90.014801 660.669189,87.701149 
	C663.229980,83.794167 667.229736,81.245102 669.448181,77.316566 
	C668.341248,72.239479 665.168579,71.039902 660.406311,71.255310 
	C655.985046,71.455284 651.105042,72.822830 647.376038,68.622025 
	C646.482422,69.726440 645.783630,70.590042 644.646301,71.918175 
z"/>
<path fill="#000000" opacity="1.000000" stroke="none" 
	d="
M649.651367,719.932495 
	C649.651001,695.785278 649.688293,672.130554 649.618164,648.476135 
	C649.604614,643.907654 650.756592,639.313416 649.633057,634.778381 
	C646.975525,624.052002 649.256897,612.853455 647.238525,602.333069 
	C644.973267,590.525635 645.962830,578.909363 645.811951,567.236755 
	C645.682556,557.225769 642.821350,547.998779 640.143860,538.613953 
	C639.697693,537.050415 639.585327,535.316284 639.688477,533.684326 
	C640.162964,526.181030 637.886658,519.230774 636.266357,512.041565 
	C635.213379,507.369446 633.629211,502.583313 633.636780,497.608093 
	C633.672852,473.786926 633.649719,449.965698 633.655151,426.144470 
	C633.655457,424.979950 633.528870,423.766449 633.803284,422.660583 
	C634.492493,419.882568 636.374939,418.653687 639.268066,418.680237 
	C642.627991,418.711029 642.318054,421.064270 642.319885,423.212128 
	C642.338806,446.033844 642.354675,468.855621 642.332092,491.677307 
	C642.325195,498.596954 644.622620,505.075073 645.804504,511.758026 
	C646.624329,516.393677 648.963501,520.726074 648.405029,525.695862 
	C647.621582,532.667297 650.281128,539.110046 651.756897,545.781433 
	C652.796265,550.479675 654.885986,555.042969 654.462036,560.205261 
	C653.945679,566.492798 654.547363,572.863281 654.302795,579.183899 
	C653.758240,593.256165 655.447876,607.335938 656.886536,621.137817 
	C659.328308,644.561890 657.374634,667.855957 658.261597,691.180176 
	C658.710693,702.990417 658.359497,714.831848 658.323303,726.659058 
	C658.316895,728.752747 658.758545,731.220032 655.377930,731.312622 
	C652.232422,731.398743 650.258789,729.928650 649.787231,726.910828 
	C649.456360,724.793518 649.677185,722.590027 649.651367,719.932495 
z"/>
<path fill="#000000" opacity="1.000000" stroke="none" 
	d="
M572.218506,298.754272 
	C571.142029,294.168091 568.430542,291.434296 564.666504,289.593475 
	C558.112366,286.388092 556.223022,282.790802 557.710999,276.302185 
	C559.676025,267.733154 565.078796,261.474365 571.464905,255.892563 
	C572.054382,255.377335 572.895569,254.778442 573.590698,254.812592 
	C581.214722,255.187149 588.664368,253.916626 596.136047,252.701965 
	C598.941284,252.245941 600.304443,253.448425 600.404968,256.589600 
	C600.581726,262.109772 605.849792,265.322083 607.236145,270.424927 
	C607.514709,271.450165 608.554932,272.486481 608.247314,273.601166 
	C605.779968,282.541962 606.117126,293.030487 595.334229,297.493866 
	C594.954041,297.651276 594.646362,298.090332 594.406067,298.463318 
	C590.930298,303.857544 587.442322,304.989349 581.511047,302.094971 
	C578.585327,300.667236 574.531189,302.823059 572.218506,298.754272 
z"/>
<path fill="#000000" opacity="1.000000" stroke="none" 
	d="
M630.478333,301.184265 
	C623.786255,295.603638 625.377930,289.052795 626.829834,282.070709 
	C629.166260,270.835449 638.804260,265.618134 645.429077,257.913483 
	C646.730591,256.399841 648.328979,256.449554 649.940735,257.234558 
	C653.746948,259.088470 657.706604,260.720093 661.247803,262.996155 
	C664.108521,264.834869 665.045471,268.629272 666.919800,271.038757 
	C671.794067,277.304626 670.080505,283.936279 670.245178,290.456421 
	C670.455322,298.780426 661.149841,307.299225 652.976196,307.526855 
	C644.839661,307.753418 637.203430,306.929596 630.478333,301.184265 
z"/>
<path fill="#000000" opacity="1.000000" stroke="none" 
	d="
M660.332092,325.822021 
	C660.742554,329.161224 659.747559,331.460022 657.488586,333.281555 
	C656.848755,333.797424 656.245605,334.416504 655.795532,335.100159 
	C653.774597,338.169891 652.674683,342.307281 647.539246,341.405762 
	C643.900757,340.767059 640.305298,341.717407 636.441223,339.999329 
	C633.450745,338.669647 629.635376,338.151794 626.226013,337.171631 
	C624.647217,336.717804 623.155762,336.912567 622.908936,338.238770 
	C622.173096,342.192017 619.328247,341.372467 616.786499,341.378021 
	C610.622864,341.391479 604.453552,341.212067 598.297241,341.423157 
	C592.487854,341.622406 587.652466,338.661224 582.401428,337.050720 
	C581.995972,336.926331 581.737610,336.343781 581.394958,335.989716 
	C579.116028,333.635254 578.856873,318.964203 580.943604,316.450958 
	C582.445618,314.641937 584.322449,314.476776 586.359436,314.849609 
	C588.725037,315.282562 588.221191,317.276642 588.299194,318.844757 
	C588.398376,320.839050 588.327026,322.841644 588.337341,324.840607 
	C588.364075,330.010925 590.333862,332.331757 595.568420,332.568848 
	C600.887878,332.809784 606.228210,332.547943 611.557007,332.640503 
	C614.582886,332.693085 615.828857,331.308289 615.623901,328.393829 
	C615.418335,325.471985 615.822876,322.821228 618.335449,320.807220 
	C619.919067,319.537842 621.512573,317.760101 623.530273,319.167084 
	C625.445801,320.502716 629.042419,320.518951 628.367188,324.438721 
	C627.937256,326.934509 629.344055,328.037903 631.602722,329.207275 
	C634.548523,330.732422 637.730530,331.452728 640.756836,332.383362 
	C645.276062,333.773102 651.384094,327.471039 651.679810,322.085968 
	C651.889771,318.262238 650.421509,314.118256 654.156555,310.903381 
	C656.244263,309.106384 657.695251,308.963959 660.184265,310.321198 
	C662.903503,311.804047 662.870483,314.121765 661.965881,315.739777 
	C660.205994,318.887451 660.366211,322.082642 660.332092,325.822021 
z"/>
<path fill="#000000" opacity="1.000000" stroke="none" 
	d="
M777.697937,535.117493 
	C778.691711,536.043884 779.335815,536.812378 780.085144,537.458984 
	C782.383118,539.441956 783.546143,542.346924 781.498779,544.373596 
	C779.562439,546.290405 776.032593,546.263794 773.744934,544.177429 
	C769.668274,540.459412 765.774841,536.637329 761.142212,533.492371 
	C756.484985,530.330627 751.333923,528.949768 746.146362,527.419373 
	C745.052124,527.096558 743.769592,527.364929 742.708374,526.985107 
	C734.704285,524.120178 734.343201,524.345581 734.343689,532.756348 
	C734.343872,535.256104 734.507263,537.768494 734.309082,540.252197 
	C734.086121,543.045654 735.035583,545.526917 737.305847,546.644348 
	C741.619568,548.767578 744.380371,552.907166 748.814941,554.818665 
	C751.103455,555.805115 753.227234,557.719177 753.990601,559.908081 
	C755.926453,565.459045 759.679932,569.434509 763.855164,573.203308 
	C766.160583,575.284302 767.791382,578.288208 765.374878,580.450378 
	C763.323669,582.285706 759.902710,582.119507 757.229065,579.778137 
	C753.477600,576.492920 750.866943,572.145569 748.266357,568.197571 
	C744.695496,562.776489 740.506897,558.529419 734.957520,555.827332 
	C728.533325,552.699341 724.934082,548.521790 725.568909,540.998047 
	C726.001709,535.868347 725.613892,530.672363 725.665649,525.506775 
	C725.721802,519.899536 728.950012,517.076965 734.559265,516.589600 
	C742.441956,515.904663 749.065430,520.001099 756.330688,521.561707 
	C763.678894,523.140198 768.761719,527.670593 773.504883,532.919922 
	C774.577576,534.107056 775.875061,534.682739 777.697937,535.117493 
z"/>
<path fill="#000000" opacity="1.000000" stroke="none" 
	d="
M480.295929,518.653809 
	C484.838593,519.882202 487.572540,523.473633 491.534088,525.153198 
	C494.184570,526.276917 494.714447,529.155396 494.317719,532.017822 
	C494.133667,533.345886 494.208008,534.745239 492.509796,535.171021 
	C489.978729,535.805542 488.306946,534.309021 486.239349,533.144165 
	C477.164886,528.031799 470.036987,520.324524 461.116699,514.857361 
	C456.678558,512.137268 449.733673,508.072083 451.575195,499.848572 
	C452.072235,497.628906 451.643402,495.203278 451.649963,492.872223 
	C451.675568,483.817108 457.086975,480.598267 465.873871,482.227783 
	C475.679535,484.046204 481.925476,491.862396 490.820251,495.002289 
	C493.626892,495.993042 492.449432,499.461243 491.933075,501.705933 
	C491.377350,504.121674 488.668365,503.766510 487.338837,503.066742 
	C485.092224,501.884247 482.728333,500.465210 480.537933,499.550934 
	C474.533997,497.044983 470.218414,491.409149 463.464813,490.558746 
	C461.536194,490.315918 460.621613,491.846497 460.507568,493.437256 
	C460.202454,497.692780 459.336243,502.220673 463.787628,505.147217 
	C469.681458,509.022034 475.064301,513.499695 480.295929,518.653809 
z"/>
<path fill="#000000" opacity="1.000000" stroke="none" 
	d="
M714.895691,379.333801 
	C706.972595,377.707123 702.436340,383.809265 696.648865,386.388947 
	C690.459900,389.147583 684.989929,393.505066 680.236938,398.477600 
	C674.773682,404.193207 668.166504,408.489807 662.097839,413.450989 
	C661.289185,414.112000 660.418701,414.600037 660.413940,415.687683 
	C660.401794,418.473083 659.036865,419.645142 656.330872,419.274841 
	C653.492310,418.886353 652.130981,417.222656 651.637268,414.377228 
	C650.844543,409.808411 653.558838,407.232819 656.651367,404.899811 
	C664.435669,399.027405 673.591797,395.041290 680.005615,387.255127 
	C683.571533,382.926239 688.521851,380.065674 693.562012,377.812805 
	C696.926514,376.308899 699.356873,373.644318 702.669861,372.081482 
	C707.522583,369.792297 711.761169,370.307373 716.317993,372.587067 
	C718.081299,373.469208 718.233887,374.599182 718.260254,376.135193 
	C718.294556,378.132812 717.470642,379.301331 714.895691,379.333801 
z"/>
<path fill="#000000" opacity="1.000000" stroke="none" 
	d="
M592.417114,429.592316 
	C588.246643,429.343079 584.998352,427.150787 581.109375,426.936432 
	C578.655090,426.801178 577.383240,424.058014 577.727173,421.170776 
	C578.091675,418.110870 580.405579,418.863068 582.258728,418.657013 
	C587.505615,418.073517 592.269348,419.776154 596.794617,422.068817 
	C603.463806,425.447601 611.035400,426.395050 617.581543,430.254303 
	C620.026184,431.695618 620.518250,433.040070 620.140503,435.277618 
	C619.691223,437.939117 617.456726,437.196960 615.759705,437.334625 
	C610.059509,437.796997 605.050842,435.196777 600.358826,432.754913 
	C597.866394,431.457764 594.633118,432.265167 592.417114,429.592316 
z"/>
</svg>