<svg version="1.1" id="Layer_1" xmlns="http://www.w3.org/2000/svg" xmlns:xlink="http://www.w3.org/1999/xlink" x="0px" y="0px"
	 width="100%" viewBox="0 0 656 528" enable-background="new 0 0 656 528" xml:space="preserve">
<path fill="#000000" opacity="1.000000" stroke="none" 
	d="
M256.357361,369.386169 
	C251.918839,371.800537 248.066345,374.385651 244.832230,377.837860 
	C235.831253,387.445709 236.248352,398.050323 246.306534,406.518829 
	C255.464279,414.229248 266.130035,419.369446 277.280670,423.480713 
	C296.007507,430.385315 315.408966,433.813202 335.314514,435.123077 
	C366.380432,437.167358 396.848114,434.541077 426.505035,424.722900 
	C438.593628,420.720886 449.997955,415.275238 459.951843,407.162170 
	C471.657074,397.621643 471.671570,385.182373 460.096863,375.402893 
	C456.116058,372.039520 451.538086,369.666992 447.079895,367.060516 
	C442.058777,364.124908 440.726990,359.259644 443.720764,355.334351 
	C445.683472,352.760925 448.464447,351.077118 451.578003,352.501038 
	C464.875275,358.582275 476.756104,366.319702 482.071930,380.986664 
	C483.445007,384.775085 484.103027,388.680206 484.023743,392.747375 
	C483.906799,398.744141 483.572815,404.781403 484.080963,410.737457 
	C485.768707,430.518616 475.807037,443.637360 460.135040,453.567139 
	C440.204498,466.195099 418.046692,472.649017 394.980957,476.071411 
	C359.712646,481.304352 324.619446,480.387360 289.981689,471.309631 
	C271.960754,466.586792 254.966293,459.460938 239.991745,448.122375 
	C228.651093,439.535309 222.360199,428.452087 223.071671,413.808929 
	C223.459412,405.828735 223.205185,397.818878 223.512405,389.832855 
	C223.916122,379.338898 229.154480,371.248993 236.740509,364.421936 
	C241.746078,359.917084 247.505600,356.581024 253.486816,353.615143 
	C258.334595,351.211273 262.653564,352.295898 264.737915,356.228333 
	C266.847015,360.207458 265.008087,364.702179 260.199432,367.318756 
	C259.029083,367.955627 257.857239,368.589661 256.357361,369.386169 
M435.788208,437.422821 
	C410.361481,446.758362 383.973541,450.560333 357.019653,451.183502 
	C342.668060,451.515289 328.420074,450.249176 314.263733,448.168274 
	C288.499023,444.381012 263.831879,437.379028 242.168182,422.142487 
	C241.263535,421.506226 240.466049,420.495453 238.845490,421.028503 
	C238.885361,424.431061 239.996933,427.350983 242.345078,429.953003 
	C247.437729,435.596069 253.552704,439.844452 260.152618,443.480957 
	C284.159119,456.708527 310.326599,462.026489 337.278320,463.738251 
	C361.799591,465.295654 386.186371,463.485168 410.156708,457.737244 
	C428.778992,453.271759 446.456360,446.673187 461.250549,433.934265 
	C465.390045,430.369873 468.376953,426.233185 468.372620,419.837982 
	C458.273926,427.280182 447.769958,432.931152 435.788208,437.422821 
z"/>
<path fill="#000000" opacity="1.000000" stroke="none" 
	d="
M380.332703,295.500793 
	C396.857117,297.848572 412.594604,301.265839 426.347900,310.528717 
	C435.838959,316.920959 440.840485,325.646332 440.474670,337.489960 
	C440.079498,350.282654 440.061859,363.107452 440.476593,375.898865 
	C440.875580,388.203430 435.290863,396.938171 425.589111,403.523315 
	C410.848114,413.528717 393.928589,417.368896 376.699463,419.634491 
	C349.227142,423.247131 322.203827,420.976044 296.070801,411.246582 
	C286.255493,407.592255 277.426422,402.385101 271.350159,393.441772 
	C268.271332,388.910217 266.618591,383.977570 266.643555,378.442078 
	C266.704956,364.807739 266.724091,351.172546 266.637848,337.538452 
	C266.570312,326.859192 271.028809,318.617340 279.619873,312.465942 
	C291.826111,303.725952 305.830475,299.572968 320.313690,296.878540 
	C333.749237,294.379028 347.345520,293.199554 361.024475,293.814240 
	C367.324219,294.097290 373.601715,294.875549 380.332703,295.500793 
M398.513153,351.053894 
	C405.428528,349.011078 411.946808,346.025452 417.871277,341.969482 
	C426.060852,336.362793 426.046509,329.303589 418.078857,323.522858 
	C414.279816,320.766541 410.094574,318.687012 405.657654,317.214630 
	C380.605560,308.901245 355.065033,306.337128 328.947357,310.907776 
	C315.962219,313.180237 303.103638,315.933807 291.515991,322.602997 
	C281.805115,328.192078 281.591492,335.893280 290.914276,342.341400 
	C295.881134,345.776764 301.486206,347.998901 307.190033,349.838745 
	C337.211670,359.522583 367.419464,359.176453 398.513153,351.053894 
M293.329102,393.175354 
	C299.127045,396.529724 305.286743,398.998810 311.746338,400.750122 
	C335.607574,407.219299 359.715271,407.761688 383.911163,403.241516 
	C396.050415,400.973663 407.886749,397.530975 418.265991,390.368988 
	C421.646240,388.036560 425.072266,385.322449 425.308075,381.125885 
	C425.770081,372.903931 425.443848,364.637665 425.443848,356.643616 
	C377.554199,378.118988 330.155090,377.842529 282.309052,355.951202 
	C282.309052,362.215637 282.752258,368.227722 282.205048,374.148285 
	C281.385681,383.013184 285.334869,388.768860 293.329102,393.175354 
z"/>
<path fill="#000000" opacity="1.000000" stroke="none" 
	d="
M206.879120,340.880249 
	C201.844482,345.770691 196.999069,350.350677 192.302628,355.078644 
	C189.626816,357.772400 187.554733,357.194977 185.219360,354.614502 
	C183.028564,352.193787 182.072144,350.270447 184.946548,347.496307 
	C213.840057,319.610840 242.323059,291.290192 271.614197,263.830811 
	C285.634369,250.687393 303.215332,243.937607 322.392487,241.779007 
	C338.910614,239.919708 358.266327,225.685501 362.247070,210.495392 
	C364.942139,200.211380 361.915955,190.361160 353.351807,183.936493 
	C347.345276,179.430481 347.456238,176.514816 353.959656,172.315033 
	C365.134827,165.098343 374.609436,156.182129 378.473053,143.158142 
	C384.794220,121.849823 374.202179,105.114571 351.679047,103.540565 
	C345.941772,103.139618 340.370575,103.854507 334.961487,105.715546 
	C332.509308,106.559250 330.049591,107.336372 327.868500,105.494278 
	C325.363098,103.378273 326.409698,100.540100 327.090820,98.038170 
	C329.477692,89.270683 331.128387,80.483696 328.375671,71.503670 
	C323.501373,55.602261 307.167114,47.476673 290.863281,53.024189 
	C278.512177,57.226749 268.848083,65.099258 261.651703,75.914673 
	C257.134308,82.703850 253.584198,82.903557 248.899338,76.275993 
	C242.359360,67.024101 228.897049,63.468822 218.023529,68.887314 
	C203.274063,76.237267 193.842255,88.285126 191.155212,104.551765 
	C187.543045,126.418686 178.986298,145.418182 162.860855,160.949463 
	C135.618896,187.187653 108.566849,213.623367 81.513573,240.056503 
	C78.903748,242.606491 77.119164,243.353149 74.192886,240.318359 
	C71.208504,237.223343 72.808624,235.597809 75.055534,233.417740 
	C103.635971,205.687592 132.391754,178.132309 160.602295,150.029968 
	C170.478760,140.191376 176.669922,127.690346 179.625031,113.959930 
	C182.220840,101.898804 184.391388,89.718987 191.995834,79.555367 
	C204.325256,63.076649 218.125656,53.959007 239.855347,58.813583 
	C245.632431,60.104229 250.329178,63.614483 255.105621,67.623421 
	C260.554291,63.745888 264.014618,57.899391 269.377625,53.910004 
	C283.865845,43.132664 299.612122,38.405682 316.630096,45.473789 
	C330.471008,51.222366 339.896820,65.927162 338.836121,80.827232 
	C338.611511,83.982750 338.628662,87.163681 338.245514,90.297585 
	C337.788910,94.032593 339.491028,95.127892 342.859802,94.676933 
	C352.150635,93.433289 361.208649,94.282280 369.527405,98.783394 
	C379.907471,104.399849 389.791534,117.076370 389.647186,129.954514 
	C389.435669,148.828796 380.239777,162.658035 366.927307,174.618347 
	C365.693451,175.726868 364.390991,176.758972 362.865295,178.040878 
	C365.937469,183.443970 370.218109,188.239456 371.457123,194.568100 
	C373.859497,206.838760 371.457764,217.906967 363.771179,227.921402 
	C352.793793,242.223251 337.809479,248.598404 320.498810,251.442886 
	C303.666595,254.208755 288.622864,260.631927 276.158020,273.236176 
	C253.549469,296.097504 230.181625,318.207947 206.879120,340.880249 
z"/>
<path fill="#000000" opacity="1.000000" stroke="none" 
	d="
M183.162109,163.513855 
	C188.246613,147.849396 206.003479,138.886002 222.158707,144.460602 
	C232.318970,147.966568 241.878677,147.552536 251.616760,142.898987 
	C257.243103,140.210342 263.064209,137.523590 269.775848,138.419586 
	C288.337891,140.897568 297.756348,157.251785 290.331818,174.390900 
	C289.079987,177.280670 287.821198,180.179565 286.348541,182.959244 
	C282.310516,190.581177 281.791931,198.348907 284.385406,206.594849 
	C289.312897,222.261993 284.773621,236.028091 272.397827,244.511841 
	C258.536072,254.014236 237.683685,246.255356 232.173294,235.218689 
	C229.176758,229.216949 226.233139,223.291092 224.983490,216.788193 
	C223.605637,209.618134 219.496124,205.923416 212.695602,204.172775 
	C206.787689,202.651901 200.868256,201.206192 195.740860,197.354477 
	C184.357040,188.802917 179.806183,177.891434 183.162109,163.513855 
M236.310089,223.068985 
	C238.068420,227.272354 240.674377,230.833588 243.922958,234.057571 
	C249.993927,240.082535 257.107574,241.154968 264.569031,237.941925 
	C271.503052,234.956009 275.999359,229.516479 276.731934,221.607956 
	C277.199646,216.558350 276.309052,211.654190 275.031555,206.802979 
	C272.519714,197.264694 273.301544,188.041641 277.583008,179.126724 
	C279.093140,175.982330 280.306366,172.675339 282.032043,169.658142 
	C287.788055,159.594223 278.066132,147.525879 268.148102,147.754395 
	C262.938751,147.874405 258.342499,149.541122 253.905258,151.800949 
	C247.210800,155.210388 240.274750,157.002670 232.730240,156.320190 
	C228.048584,155.896667 223.670471,154.340347 219.169495,153.175903 
	C209.894501,150.776398 201.584427,152.727112 195.272339,160.286728 
	C190.158585,166.411194 189.734024,173.410202 193.291977,180.365280 
	C196.057022,185.770340 200.214066,190.141037 206.033310,192.392456 
	C210.991348,194.310654 216.135040,195.744568 221.119781,197.599258 
	C227.119003,199.831421 230.995972,204.006805 232.517273,210.388962 
	C233.479477,214.425522 234.875259,218.358734 236.310089,223.068985 
z"/>
<path fill="#000000" opacity="1.000000" stroke="none" 
	d="
M365.460388,118.493332 
	C372.747101,126.571747 372.329468,135.403412 367.800507,143.791290 
	C358.432892,161.140518 343.761627,170.898361 323.731415,171.147888 
	C308.302673,171.340103 299.867889,159.058228 304.753754,144.291626 
	C310.392639,127.249229 332.471344,112.067329 350.415558,113.010529 
	C355.808502,113.293999 360.877075,114.771812 365.460388,118.493332 
M331.036316,127.472153 
	C326.517181,130.400436 323.289795,134.744293 319.264557,138.203827 
	C316.200378,140.837357 314.618958,144.227890 313.590973,147.954956 
	C311.272766,156.359970 315.272217,161.914246 323.997009,161.765137 
	C339.759033,161.495728 351.853027,154.162354 359.172058,140.468353 
	C364.486908,130.524200 362.389465,121.817177 347.774994,122.322327 
	C341.979218,122.522659 336.780792,124.626282 331.036316,127.472153 
z"/>
<path fill="#000000" opacity="1.000000" stroke="none" 
	d="
M274.096497,75.188385 
	C280.214355,68.629028 286.976776,63.729076 295.505005,61.727764 
	C309.486023,58.446854 319.749725,66.158226 320.227081,80.483078 
	C320.616699,92.174469 316.211670,102.361351 308.739319,110.985649 
	C303.349701,117.206146 297.623138,123.247231 289.186920,125.872986 
	C270.213684,131.778351 259.646149,121.078644 261.258514,102.624290 
	C262.170044,92.191360 267.868713,83.686859 274.096497,75.188385 
M273.891083,92.461647 
	C271.205078,97.582375 269.833710,102.992249 270.424347,108.797836 
	C271.056885,115.015038 274.395813,117.980721 280.560364,117.973740 
	C288.627808,117.964615 294.179169,113.163887 299.300842,107.861557 
	C306.715729,100.185150 311.598328,91.300766 310.806030,80.169998 
	C310.289520,72.913147 305.266113,69.108116 298.185455,70.567139 
	C295.230011,71.176132 292.621826,72.481537 290.056519,74.189682 
	C283.234741,78.732109 278.164429,84.715714 273.891083,92.461647 
z"/>
<path fill="#000000" opacity="1.000000" stroke="none" 
	d="
M245.303650,91.920013 
	C248.135696,108.241974 237.176544,128.458603 221.968460,133.335281 
	C211.214386,136.783707 201.397064,132.736786 199.842117,117.784836 
	C198.100830,101.040916 205.856430,88.141602 219.105515,79.211288 
	C229.162720,72.432419 242.477829,76.397354 245.303650,91.920013 
M235.546173,90.250610 
	C231.929153,84.874496 228.349014,83.745926 223.603302,87.171608 
	C213.305740,94.604874 207.957596,104.604012 209.351532,117.531616 
	C210.127472,124.727737 215.815887,127.410507 221.764969,123.241180 
	C232.002487,116.066353 239.020172,102.899666 235.546173,90.250610 
z"/>
<path fill="#000000" opacity="1.000000" stroke="none" 
	d="
M296.337158,223.266418 
	C292.880829,212.702026 296.690491,203.040329 307.857147,195.280212 
	C315.905548,189.687073 324.932983,186.550125 334.989471,186.992188 
	C342.423553,187.318954 348.516724,190.438660 351.795441,196.902023 
	C355.123444,203.462555 353.790741,210.239212 349.124725,216.074051 
	C338.776459,229.014557 325.199432,234.130615 308.952057,231.976791 
	C303.669708,231.276520 299.350739,228.345718 296.337158,223.266418 
M304.534485,218.751083 
	C308.557831,223.821655 314.062317,224.313644 319.786285,223.280273 
	C328.409576,221.723465 335.498444,217.383759 341.324707,210.795731 
	C343.933105,207.846359 344.821930,204.544220 343.443085,201.146378 
	C342.093323,197.820145 338.887512,196.644363 335.314911,196.326645 
	C329.479034,195.807663 323.889587,197.069366 318.885925,199.639816 
	C311.443054,203.463333 304.295349,207.995621 304.534485,218.751083 
z"/>
</svg>